<?xml version="1.0" encoding="UTF-8" standalone="no"?>
<!-- Created with Inkscape (http://www.inkscape.org/) -->

<svg
   xmlns:dc="http://purl.org/dc/elements/1.1/"
   xmlns:cc="http://creativecommons.org/ns#"
   xmlns:rdf="http://www.w3.org/1999/02/22-rdf-syntax-ns#"
   xmlns:svg="http://www.w3.org/2000/svg"
   xmlns="http://www.w3.org/2000/svg"
   xmlns:sodipodi="http://sodipodi.sourceforge.net/DTD/sodipodi-0.dtd"
   xmlns:inkscape="http://www.inkscape.org/namespaces/inkscape"
   width="70mm"
   height="20mm"
   viewBox="0 0 70 20"
   version="1.1"
   id="svg6276"
   inkscape:version="0.92.2 2405546, 2018-03-11"
   sodipodi:docname="logo.svg">
  <defs
     id="defs6270">
    <clipPath
       clipPathUnits="userSpaceOnUse"
       id="clipPath1448">
      <path
         d="M 0,783 H 1280 V 0 H 0 Z"
         id="path1446"
         inkscape:connector-curvature="0" />
    </clipPath>
  </defs>
  <sodipodi:namedview
     id="base"
     pagecolor="#ffffff"
     bordercolor="#666666"
     borderopacity="1.0"
     inkscape:pageopacity="0.0"
     inkscape:pageshadow="2"
     inkscape:zoom="3.959798"
     inkscape:cx="133.83969"
     inkscape:cy="49.146728"
     inkscape:document-units="mm"
     inkscape:current-layer="g1444"
     showgrid="false"
     inkscape:window-width="1920"
     inkscape:window-height="1012"
     inkscape:window-x="0"
     inkscape:window-y="32"
     inkscape:window-maximized="1"
     fit-margin-top="0"
     fit-margin-left="0"
     fit-margin-right="0"
     fit-margin-bottom="0" />
  <metadata
     id="metadata6273">
    <rdf:RDF>
      <cc:Work
         rdf:about="">
        <dc:format>image/svg+xml</dc:format>
        <dc:type
           rdf:resource="http://purl.org/dc/dcmitype/StillImage" />
        <dc:title></dc:title>
      </cc:Work>
    </rdf:RDF>
  </metadata>
  <g
     inkscape:label="Sluoksnis 1"
     inkscape:groupmode="layer"
     id="layer1"
     transform="translate(205.33987,-82.441218)">
    <g
       transform="matrix(0.35277777,0,0,-0.35277777,-221.72283,358.96287)"
       id="g1444"
       clip-path="url(#clipPath1448)">
      <g
         id="g1450"
         transform="translate(66.326761,743.4471)">
        <path
           d="m 0,0 c -1.728,-0.576 -3.04,-0.768 -4.8,-0.768 -6.431,0 -10.367,4.512 -10.367,11.711 0,7.168 3.936,11.679 10.367,11.679 1.824,0 3.168,-0.16 4.768,-0.672 L 1.44,21.47 C 1.696,21.375 1.792,21.214 1.696,20.958 L 0.544,17.343 C 0.448,17.087 0.288,16.991 0.032,17.087 l -1.504,0.48 c -0.928,0.287 -1.856,0.415 -3.328,0.415 -3.2,0 -5.152,-2.591 -5.152,-7.039 0,-4.511 1.952,-7.103 5.152,-7.103 1.184,0 2.144,0.096 3.296,0.48 L 0,4.768 c 0.256,0.096 0.448,0 0.512,-0.256 L 1.792,1.024 C 1.888,0.768 1.824,0.608 1.536,0.512 Z"
           style="fill:#eaeae8;fill-opacity:1;fill-rule:nonzero;stroke:none"
           id="path1452"
           inkscape:connector-curvature="0" />
      </g>
      <g
         id="g1454"
         transform="translate(75.127061,754.3905)">
        <path
           d="m 0,0 c 0,-4.384 1.888,-7.104 4.992,-7.104 3.104,0 4.96,2.72 4.96,7.104 0,4.479 -1.856,7.039 -4.96,7.039 C 1.888,7.039 0,4.479 0,0 m 15.167,0 c 0,-7.167 -3.872,-11.711 -10.175,-11.711 -6.336,0 -10.207,4.544 -10.207,11.711 0,7.199 3.871,11.679 10.207,11.679 6.303,0 10.175,-4.48 10.175,-11.679"
           style="fill:#eaeae8;fill-opacity:1;fill-rule:nonzero;stroke:none"
           id="path1456"
           inkscape:connector-curvature="0" />
      </g>
      <g
         id="g1458"
         transform="translate(112.27746,743.4471)">
        <path
           d="m 0,0 c 0,-0.256 -0.16,-0.416 -0.416,-0.416 h -5.695 c -0.256,0 -0.384,0.096 -0.48,0.32 -0.48,1.12 -1.088,2.336 -1.6,3.392 l -4.544,9.215 c -0.416,0.832 -0.768,1.568 -1.152,2.4 -0.256,0.48 -0.576,0.288 -0.544,-0.128 0.288,-2.016 0.352,-3.52 0.352,-5.824 V 0 c 0,-0.256 -0.16,-0.416 -0.416,-0.416 h -4.352 c -0.256,0 -0.415,0.16 -0.415,0.416 v 21.854 c 0,0.256 0.159,0.417 0.415,0.417 h 5.696 c 0.256,0 0.384,-0.097 0.48,-0.321 0.512,-1.119 1.12,-2.335 1.632,-3.391 l 4.576,-9.28 c 0.383,-0.832 0.735,-1.568 1.151,-2.336 0.225,-0.511 0.577,-0.319 0.513,0.128 -0.321,1.984 -0.352,3.456 -0.352,5.76 v 9.023 c 0,0.256 0.159,0.417 0.416,0.417 h 4.319 C -0.16,22.271 0,22.11 0,21.854 Z"
           style="fill:#eaeae8;fill-opacity:1;fill-rule:nonzero;stroke:none"
           id="path1460"
           inkscape:connector-curvature="0" />
      </g>
      <g
         id="g1462"
         transform="translate(133.30186,761.5897)">
        <path
           d="M 0,0 C 0,-0.256 -0.16,-0.416 -0.416,-0.416 H -6.72 v -17.727 c 0,-0.255 -0.159,-0.416 -0.416,-0.416 h -4.319 c -0.256,0 -0.416,0.161 -0.416,0.416 v 17.727 h -6.336 c -0.256,0 -0.416,0.16 -0.416,0.416 v 3.712 c 0,0.256 0.16,0.416 0.416,0.416 H -0.416 C -0.16,4.128 0,3.968 0,3.712 Z"
           style="fill:#eaeae8;fill-opacity:1;fill-rule:nonzero;stroke:none"
           id="path1464"
           inkscape:connector-curvature="0" />
      </g>
      <g
         id="g1466"
         transform="translate(144.85366,751.8304)">
        <path
           d="M 0,0 C -0.928,2.528 -1.952,5.536 -2.336,7.616 -2.432,8 -2.815,8 -2.912,7.616 -3.328,5.536 -4.319,2.56 -5.248,0 l -0.447,-1.28 h 6.143 z m -7.327,-5.792 -0.96,-2.687 c -0.096,-0.224 -0.256,-0.32 -0.48,-0.32 h -4.512 c -0.32,0 -0.448,0.192 -0.352,0.48 l 4.512,12.223 c 1.183,3.263 2.24,6.399 3.039,9.631 0.064,0.224 0.225,0.352 0.48,0.352 h 5.952 c 0.256,0 0.416,-0.128 0.48,-0.352 0.8,-3.232 1.856,-6.368 3.04,-9.631 L 8.383,-8.319 C 8.479,-8.607 8.352,-8.799 8.032,-8.799 H 3.52 c -0.224,0 -0.384,0.096 -0.48,0.32 l -0.96,2.687 z"
           style="fill:#eaeae8;fill-opacity:1;fill-rule:nonzero;stroke:none"
           id="path1468"
           inkscape:connector-curvature="0" />
      </g>
      <g
         id="g1470"
         transform="translate(169.07776,743.4471)">
        <path
           d="m 0,0 c -1.728,-0.576 -3.04,-0.768 -4.8,-0.768 -6.431,0 -10.367,4.512 -10.367,11.711 0,7.168 3.936,11.679 10.367,11.679 1.824,0 3.168,-0.16 4.768,-0.672 L 1.44,21.47 C 1.696,21.375 1.792,21.214 1.696,20.958 L 0.544,17.343 C 0.448,17.087 0.288,16.991 0.032,17.087 l -1.504,0.48 c -0.928,0.287 -1.856,0.415 -3.328,0.415 -3.2,0 -5.152,-2.591 -5.152,-7.039 0,-4.511 1.952,-7.103 5.152,-7.103 1.184,0 2.144,0.096 3.296,0.48 L 0,4.768 c 0.256,0.096 0.448,0 0.512,-0.256 L 1.792,1.024 C 1.888,0.768 1.824,0.608 1.536,0.512 Z"
           style="fill:#eaeae8;fill-opacity:1;fill-rule:nonzero;stroke:none"
           id="path1472"
           inkscape:connector-curvature="0" />
      </g>
      <g
         id="g1474"
         transform="translate(191.57336,761.5897)">
        <path
           d="M 0,0 C 0,-0.256 -0.16,-0.416 -0.416,-0.416 H -6.72 v -17.727 c 0,-0.255 -0.159,-0.416 -0.416,-0.416 h -4.319 c -0.256,0 -0.416,0.161 -0.416,0.416 v 17.727 h -6.336 c -0.256,0 -0.416,0.16 -0.416,0.416 v 3.712 c 0,0.256 0.16,0.416 0.416,0.416 H -0.416 C -0.16,4.128 0,3.968 0,3.712 Z"
           style="fill:#eaeae8;fill-opacity:1;fill-rule:nonzero;stroke:none"
           id="path1476"
           inkscape:connector-curvature="0" />
      </g>
      <g
         id="g1478"
         transform="translate(199.15786,743.4471)">
        <path
           d="m 0,0 c 0,-0.256 -0.16,-0.416 -0.416,-0.416 h -4.352 c -0.256,0 -0.416,0.16 -0.416,0.416 v 21.854 c 0,0.256 0.16,0.417 0.416,0.417 h 4.352 C -0.16,22.271 0,22.11 0,21.854 Z"
           style="fill:#eaeae8;fill-opacity:1;fill-rule:nonzero;stroke:none"
           id="path1480"
           inkscape:connector-curvature="0" />
      </g>
      <g
         id="g1482"
         transform="translate(215.86096,755.8622)">
        <path
           d="m 0,0 c 0.256,0 0.416,-0.16 0.416,-0.416 v -3.68 C 0.416,-4.352 0.256,-4.512 0,-4.512 h -8.159 v -7.903 c 0,-0.256 -0.16,-0.416 -0.416,-0.416 h -4.352 c -0.256,0 -0.416,0.16 -0.416,0.416 V 9.439 c 0,0.256 0.16,0.416 0.416,0.416 H 2.464 c 0.288,0 0.416,-0.192 0.352,-0.48 L 1.792,5.664 C 1.728,5.439 1.568,5.312 1.344,5.312 H -8.159 V 0 Z"
           style="fill:#eaeae8;fill-opacity:1;fill-rule:nonzero;stroke:none"
           id="path1484"
           inkscape:connector-curvature="0" />
      </g>
      <g
         id="g1486"
         transform="translate(236.46786,757.7498)">
        <path
           d="m 0,0 c -2.656,-5.056 -3.647,-6.847 -3.647,-11.295 v -3.008 c 0,-0.256 -0.161,-0.416 -0.416,-0.416 h -4.32 c -0.256,0 -0.416,0.16 -0.416,0.416 v 3.008 c 0,4.448 -0.96,6.239 -3.68,11.295 l -4,7.488 c -0.16,0.287 -0.032,0.48 0.32,0.48 h 4.704 c 0.224,0 0.384,-0.096 0.48,-0.288 l 2.24,-4.096 c 1.024,-1.888 1.792,-3.84 2.208,-4.992 0.128,-0.384 0.48,-0.384 0.608,0 0.384,1.152 1.215,3.136 2.208,4.992 l 2.207,4.096 c 0.096,0.192 0.256,0.288 0.48,0.288 H 3.68 c 0.352,0 0.48,-0.193 0.32,-0.48 z"
           style="fill:#eaeae8;fill-opacity:1;fill-rule:nonzero;stroke:none"
           id="path1488"
           inkscape:connector-curvature="0" />
      </g>
      <g
         id="g1490"
         transform="translate(200.45326,771.473)">
        <path
           d="m 0,0 c -0.022,0.054 -0.049,0.106 -0.08,0.157 -0.107,0.171 -0.247,0.326 -0.418,0.464 -0.17,0.137 -0.367,0.263 -0.587,0.376 -0.221,0.113 -0.444,0.216 -0.67,0.31 -0.447,0.198 -0.757,0.398 -0.928,0.596 -0.171,0.199 -0.255,0.472 -0.255,0.819 0,0.21 0.05,0.342 0.152,0.398 0.102,0.054 0.183,0.273 0.244,0.653 0.022,0.161 0.078,0.232 0.166,0.215 0.088,-0.016 0.146,0.158 0.174,0.522 0,0.143 -0.045,0.262 -0.133,0.356 0.044,0.342 0.075,0.595 0.091,0.761 0.012,0.177 -0.048,0.411 -0.178,0.704 -0.13,0.292 -0.395,0.496 -0.798,0.612 -0.072,0.071 -0.111,0.161 -0.116,0.268 -0.006,0.108 0.099,0.22 0.315,0.336 C -3.496,7.569 -3.831,7.483 -4.027,7.29 -4.223,7.097 -4.445,6.909 -4.693,6.727 -4.908,6.567 -5.053,6.378 -5.128,6.161 -5.202,5.943 -5.234,5.765 -5.223,5.627 -5.207,5.461 -5.176,5.21 -5.132,4.874 -5.22,4.775 -5.265,4.653 -5.265,4.51 c 0.028,-0.364 0.086,-0.538 0.174,-0.522 0.089,0.017 0.144,-0.054 0.166,-0.215 0.06,-0.38 0.142,-0.599 0.244,-0.653 0.102,-0.056 0.153,-0.188 0.153,-0.398 0,-0.347 -0.085,-0.62 -0.256,-0.819 C -4.956,1.705 -5.265,1.508 -5.711,1.315 -5.937,1.216 -6.161,1.11 -6.381,0.997 -6.602,0.884 -6.798,0.758 -6.969,0.621 -7.14,0.483 -7.279,0.328 -7.387,0.157 -7.418,0.106 -7.444,0.054 -7.467,0 c -0.883,0.927 -1.43,2.179 -1.43,3.558 0,2.847 2.316,5.164 5.164,5.164 2.847,0 5.164,-2.317 5.164,-5.164 C 1.431,2.179 0.883,0.927 0,0 m -3.733,9.558 c -3.309,0 -6,-2.691 -6,-6 0,-1.669 0.687,-3.181 1.791,-4.27 0.216,-0.213 0.452,-0.408 0.7,-0.586 0.988,-0.717 2.198,-1.144 3.509,-1.144 1.31,0 2.52,0.427 3.508,1.144 0.248,0.178 0.484,0.373 0.701,0.586 1.103,1.089 1.791,2.601 1.791,4.27 0,3.309 -2.692,6 -6,6"
           style="fill:#eaeae8;fill-opacity:1;fill-rule:nonzero;stroke:none"
           id="path1492"
           inkscape:connector-curvature="0" />
      </g>
    </g>
  </g>
</svg>
